<svg width="60" height="60" viewBox="0 0 60 60" fill="none" xmlns="http://www.w3.org/2000/svg">
<path d="M53.7452 47.015L46.0882 39.3541C45.9145 39.1787 45.4834 39.3693 44.9798 39.7319L44.3541 39.1062C47.5531 34.9494 47.3663 29.0723 43.8543 25.0911V22.9336L43.8619 22.9603C43.8619 18.8207 39.9094 14.9407 37.7863 12.8576L37.3017 12.3769C31.0409 6.11613 28.4314 5.59341 26.2987 5.59341L25.5738 5.58969H8.83468C7.83885 5.58969 6.06107 6.34507 6.06107 7.85582V52.1542C6.06107 53.4055 7.07585 54.4242 8.32719 54.4242H41.5843C42.8356 54.4242 43.8543 53.4055 43.8543 52.1542V44.1422C46.0386 46.3282 50.2352 50.5251 50.2352 50.5251C50.9945 51.2805 54.5082 47.778 53.7452 47.015Z" fill="#27323A"/>
<path d="M41.4393 38.2133C38.2251 41.4296 32.9867 41.4335 29.7704 38.2133C26.5544 34.9934 26.5544 29.7552 29.7704 26.5389C31.3271 24.9823 33.3988 24.1277 35.604 24.1277C37.8129 24.1277 39.8826 24.9823 41.4393 26.5389C44.6556 29.7589 44.6556 34.9934 41.4393 38.2133Z" fill="white"/>
<path d="M35.3446 14.3303L35.8519 14.83C36.7409 15.7 37.9885 16.9361 39.0473 18.3133C36.9659 17.535 34.6463 17.3862 32.5824 17.3024C32.5176 15.9288 32.2543 13.1247 31.3235 10.6906C32.4182 11.5491 33.7344 12.7164 35.3446 14.3303Z" fill="#79CCBF"/>
<path d="M8.82706 51.6582V8.36721C8.83468 8.36331 8.86515 8.35179 8.86515 8.35179H25.5661L26.291 8.35569C26.6573 8.35569 27.1417 8.36331 27.8401 8.59596L28.1911 8.96222C30.0872 10.8355 30.7701 15.5016 30.7701 18.1836C30.7701 18.6758 31.1593 19.084 31.6552 19.103L32.0367 19.1184C34.9019 19.229 38.4729 19.3663 40.642 21.3312L40.8402 21.5295C40.9796 21.9682 41.0712 22.4032 41.0864 22.8343C36.865 20.4079 31.4016 20.9534 27.7942 24.5627C23.4792 28.8777 23.4792 35.8747 27.7942 40.1897C31.4035 43.7988 36.8669 44.3483 41.0884 41.9179V51.6582H8.82706Z" fill="#F4CE73"/>
</svg>
