<svg width="60" height="60" viewBox="0 0 60 60" fill="none" xmlns="http://www.w3.org/2000/svg">
<g clip-path="url(#clip0_0_569)">
<path d="M54.4978 28.6899H40.2184C40.2184 31.4 39.1417 33.9991 37.2254 35.9154C35.3091 37.8317 32.71 38.9083 30 38.9083C27.2899 38.9083 24.6909 37.8317 22.7746 35.9154C20.8583 33.9991 19.7816 31.4 19.7816 28.6899H5.50221C4.37597 28.7164 3.30519 29.1845 2.52095 29.9932C1.7367 30.802 1.30183 31.8866 1.31005 33.0131V53.6463C1.30183 54.7728 1.7367 55.8574 2.52095 56.6661C3.30519 57.4749 4.37597 57.943 5.50221 57.9694H54.4978C55.624 57.943 56.6947 57.4749 57.479 56.6661C58.2632 55.8574 58.6982 54.7728 58.6899 53.6463V33.0131C58.6982 31.8866 58.2632 30.802 57.479 29.9932C56.6947 29.1845 55.624 28.7164 54.4978 28.6899Z" stroke="#2B4EA2" stroke-width="2.62009" stroke-miterlimit="10" stroke-linecap="round" stroke-linejoin="round"/>
<path d="M51.5502 28.428V13.952C51.5502 6.68122 52.7293 2.29259 46.5065 2.03058H14.1485C7.66374 2.03058 8.38423 6.35373 8.38423 12.9039V28.7555" stroke="#2B4EA2" stroke-width="2.62009" stroke-miterlimit="10" stroke-linecap="round"/>
<path d="M18.2096 12.7729H17.9476C17.7571 12.7712 17.5747 12.6947 17.44 12.56C17.3052 12.4252 17.2288 12.243 17.2271 12.0524V11.7904C17.2288 11.5998 17.3052 11.4175 17.44 11.2828C17.5747 11.148 17.7571 11.0716 17.9476 11.0699H18.2096C18.4001 11.0716 18.5825 11.148 18.7172 11.2828C18.852 11.4175 18.9285 11.5998 18.9302 11.7904V12.0524C18.9285 12.243 18.852 12.4252 18.7172 12.56C18.5825 12.6947 18.4001 12.7712 18.2096 12.7729Z" fill="#2B4EA2" stroke="#2B4EA2" stroke-width="1.31004" stroke-miterlimit="10"/>
<path d="M22.0087 19.1266H21.7467C21.5561 19.1249 21.3739 19.0485 21.2391 18.9137C21.1044 18.779 21.0279 18.5967 21.0262 18.4061V18.1441C21.0279 17.9535 21.1044 17.7713 21.2391 17.6365C21.3739 17.5018 21.5561 17.4253 21.7467 17.4236H22.0087C22.1993 17.4253 22.3815 17.5018 22.5163 17.6365C22.6511 17.7713 22.7275 17.9535 22.7292 18.1441V18.4061C22.7395 18.5033 22.728 18.6015 22.6955 18.6936C22.6629 18.7857 22.6102 18.8694 22.5411 18.9384C22.472 19.0075 22.3883 19.0603 22.2962 19.0928C22.2041 19.1254 22.1059 19.137 22.0087 19.1266Z" fill="#2B4EA2" stroke="#2B4EA2" stroke-width="1.31004" stroke-miterlimit="10"/>
<path d="M51.6812 13.0349L58.0349 30.393" stroke="#2B4EA2" stroke-width="2.62009" stroke-miterlimit="10" stroke-linecap="round"/>
<path d="M1.8996 30.5895L8.18781 13.6899" stroke="#2B4EA2" stroke-width="2.62009" stroke-miterlimit="10" stroke-linecap="round"/>
<path d="M23.4497 11.9214H34.9126" stroke="#2B4EA2" stroke-width="2.62009" stroke-miterlimit="10" stroke-linecap="round"/>
<path d="M26.9869 18.2751H38.4498" stroke="#2B4EA2" stroke-width="2.62009" stroke-miterlimit="10" stroke-linecap="round"/>
</g>
<defs>
<clipPath id="clip0_0_569">
<rect width="60" height="60" fill="white"/>
</clipPath>
</defs>
</svg>
